<?xml version="1.0" encoding="UTF-8"?>
<svg version="1.1" xmlns="http://www.w3.org/2000/svg" width="1080" height="1080">
<path d="M0 0 C356.4 0 712.8 0 1080 0 C1080 356.4 1080 712.8 1080 1080 C723.6 1080 367.2 1080 0 1080 C0 723.6 0 367.2 0 0 Z " fill="#F5F5F5" transform="translate(0,0)"/>
<path d="M0 0 C1.77508438 -0.01038551 1.77508438 -0.01038551 3.58602905 -0.02098083 C7.39853245 -0.038213 11.21089696 -0.04457144 15.0234375 -0.046875 C16.9712915 -0.04888412 16.9712915 -0.04888412 18.95849609 -0.05093384 C38.94245348 -0.04645825 58.58269004 0.51719904 78.3984375 3.203125 C79.33333008 3.3259082 80.26822266 3.44869141 81.23144531 3.57519531 C90.11830971 4.78115112 98.71390282 6.66801757 107.3515625 9.10546875 C111.27872903 10.20042949 115.24143068 11.10553906 119.21557617 12.01245117 C127.4461879 13.89572053 135.31049074 16.02350371 143.2109375 19.0234375 C146.41077752 20.20769202 149.62295152 21.18789951 152.8984375 22.140625 C158.84476309 23.92959262 164.44838586 26.25939359 170.125 28.765625 C172.88475551 29.97754627 175.65201139 31.11227991 178.4609375 32.203125 C188.56592872 36.2221556 198.19420258 41.05329002 207.75024414 46.21948242 C208.44110107 46.59177979 209.13195801 46.96407715 209.84375 47.34765625 C210.76438232 47.84809448 210.76438232 47.84809448 211.70361328 48.35864258 C213.57076919 49.33837517 213.57076919 49.33837517 216.3984375 50.203125 C216.3984375 50.863125 216.3984375 51.523125 216.3984375 52.203125 C217.84476563 52.51056641 217.84476563 52.51056641 219.3203125 52.82421875 C224.38743882 54.27215137 228.37542392 57.27101303 232.6484375 60.265625 C234.23491695 61.36366263 235.82337615 62.45884689 237.4140625 63.55078125 C238.45481934 64.27793335 238.45481934 64.27793335 239.51660156 65.01977539 C241.49311933 66.36652469 241.49311933 66.36652469 244.3984375 67.203125 C244.3984375 67.863125 244.3984375 68.523125 244.3984375 69.203125 C246.73057898 70.40940508 248.89485889 71.3685988 251.3984375 72.203125 C251.3984375 72.863125 251.3984375 73.523125 251.3984375 74.203125 C252.7184375 74.533125 254.0384375 74.863125 255.3984375 75.203125 C255.3984375 75.863125 255.3984375 76.523125 255.3984375 77.203125 C255.95144531 77.45707031 256.50445313 77.71101563 257.07421875 77.97265625 C261.85353643 80.50288326 266.0729523 83.97645257 270.3984375 87.203125 C271.74421875 88.19892578 271.74421875 88.19892578 273.1171875 89.21484375 C274.33921875 90.13716797 274.33921875 90.13716797 275.5859375 91.078125 C276.32199219 91.63242188 277.05804687 92.18671875 277.81640625 92.7578125 C278.59951172 93.47324219 278.59951172 93.47324219 279.3984375 94.203125 C279.3984375 94.863125 279.3984375 95.523125 279.3984375 96.203125 C280.1203125 96.43 280.8421875 96.656875 281.5859375 96.890625 C284.97544053 98.47239308 286.82307847 100.5021387 289.3984375 103.203125 C290.3884375 104.028125 291.3784375 104.853125 292.3984375 105.703125 C295.24354572 108.07404852 297.78145954 110.58614704 300.3984375 113.203125 C301.68535724 114.31282063 302.97745252 115.41653004 304.2734375 116.515625 C314.44186499 125.33340747 314.44186499 125.33340747 316.3984375 131.203125 C317.0584375 131.203125 317.7184375 131.203125 318.3984375 131.203125 C319.81282156 132.77599184 321.15448151 134.41452496 322.4609375 136.078125 C325.47216345 139.8541831 328.53761901 143.48841964 331.8359375 147.015625 C336.74314815 152.41525471 340.88422963 158.26938474 345.03320312 164.25097656 C346.4648506 166.29808909 347.92081501 168.32602802 349.3828125 170.3515625 C355.42407322 178.74722289 361.06381786 187.24912557 366.23583984 196.20605469 C367.47488044 198.33443606 368.74157326 200.44473425 370.01171875 202.5546875 C394.15017043 242.9633509 409.0469437 287.51744556 417.1484375 333.703125 C417.29741486 334.55116699 417.44639221 335.39920898 417.59988403 336.27294922 C418.45348122 341.16819482 419.27246263 346.06765101 420.04681396 350.97607422 C420.36753455 353.0073974 420.69906245 355.03700674 421.03173828 357.06640625 C422.88642424 369.7293202 422.79406215 382.42970395 422.7734375 395.203125 C422.77322601 396.41022125 422.77301453 397.6173175 422.77279663 398.86099243 C422.71783272 430.45013514 419.77599913 461.25411909 413.3984375 492.203125 C413.13546875 493.51144287 413.13546875 493.51144287 412.8671875 494.84619141 C410.1453939 508.29302133 406.87670855 521.80990778 401.5 534.46484375 C399.68135759 538.98565342 398.14451841 543.61031573 396.59204102 548.22851562 C395.21825013 552.22332462 393.63348771 555.59801804 391.3984375 559.203125 C390.38702611 561.53153464 389.38781984 563.86526978 388.3984375 566.203125 C386.92819318 569.23458192 385.37689455 572.22485569 383.828125 575.21679688 C382.32289323 578.17211184 381.00004908 580.92678088 380.3984375 584.203125 C379.7384375 584.203125 379.0784375 584.203125 378.3984375 584.203125 C378.0684375 586.183125 377.7384375 588.163125 377.3984375 590.203125 C376.7384375 590.203125 376.0784375 590.203125 375.3984375 590.203125 C375.0684375 591.42 374.7384375 592.636875 374.3984375 593.890625 C372.55948626 599.43362495 369.55582234 604.13753973 366.42578125 609.02734375 C364.75933593 611.63778699 363.18964835 614.26858266 361.6484375 616.953125 C351.72690705 633.56149515 339.24441821 648.50013433 326.92041016 663.34179688 C325.61291159 664.94082945 324.35055232 666.57658401 323.09765625 668.21875 C322.53691406 668.87359375 321.97617187 669.5284375 321.3984375 670.203125 C320.7384375 670.203125 320.0784375 670.203125 319.3984375 670.203125 C319.13675781 670.78191406 318.87507812 671.36070312 318.60546875 671.95703125 C317.32551011 674.33883131 315.88487696 676.12629146 314.0859375 678.140625 C313.46332031 678.83800781 312.84070313 679.53539062 312.19921875 680.25390625 C309.99746255 682.63715212 307.69253802 684.90902448 305.3984375 687.203125 C304.6353125 688.151875 303.8721875 689.100625 303.0859375 690.078125 C300.5461431 693.17793617 297.66002599 695.70792772 294.61328125 698.30078125 C292.28382707 700.30156464 290.03189173 702.37267701 287.7734375 704.453125 C281.57707028 710.04125986 275.01484006 715.12752852 268.3984375 720.203125 C267.4084375 720.96625 266.4184375 721.729375 265.3984375 722.515625 C209.27644195 765.21714335 146.06801824 790.86846905 76.5859375 802.140625 C75.36044189 802.34002686 74.13494629 802.53942871 72.87231445 802.74487305 C60.14792359 804.70616776 47.45716258 805.35907419 34.59375 805.44140625 C33.32308685 805.45110947 32.05242371 805.46081268 30.74325562 805.47080994 C26.66994656 805.49556815 22.59680671 805.50896692 18.5234375 805.515625 C17.48426682 805.51779274 17.48426682 805.51779274 16.42410278 805.52000427 C-4.54160158 805.5553491 -24.91377964 804.93525569 -45.6015625 801.203125 C-47.65051102 800.87299163 -49.69998214 800.546083 -51.75 800.22265625 C-61.80766776 798.57859824 -71.5694366 796.29694443 -81.34375 793.42578125 C-85.56512914 792.18914728 -89.82342085 791.15937453 -94.1015625 790.140625 C-99.32091418 788.87655339 -104.24814131 787.32386076 -109.18359375 785.19921875 C-111.92961333 784.0679829 -114.70975595 783.16767024 -117.5390625 782.265625 C-122.54184192 780.63651478 -127.22113198 778.614476 -131.9765625 776.375 C-135.77082416 774.68113319 -139.63649926 773.4381447 -143.6015625 772.203125 C-143.6015625 771.543125 -143.6015625 770.883125 -143.6015625 770.203125 C-144.808125 770.09871094 -144.808125 770.09871094 -146.0390625 769.9921875 C-150.71771513 768.95590698 -154.42666429 766.87719811 -158.6015625 764.578125 C-160.2845108 763.67067692 -161.96811123 762.76443732 -163.65234375 761.859375 C-164.48330566 761.41078125 -165.31426758 760.9621875 -166.17041016 760.5 C-169.67849742 758.62864435 -173.22667472 756.84339865 -176.7890625 755.078125 C-178.48095703 754.23894531 -178.48095703 754.23894531 -180.20703125 753.3828125 C-181.39232422 752.79886719 -181.39232422 752.79886719 -182.6015625 752.203125 C-182.6015625 751.543125 -182.6015625 750.883125 -182.6015625 750.203125 C-183.16359375 750.09097656 -183.725625 749.97882812 -184.3046875 749.86328125 C-186.91669358 749.11255161 -188.99627572 747.99145124 -191.3515625 746.640625 C-192.15078125 746.18558594 -192.95 745.73054687 -193.7734375 745.26171875 C-194.37671875 744.91238281 -194.98 744.56304688 -195.6015625 744.203125 C-195.6015625 743.543125 -195.6015625 742.883125 -195.6015625 742.203125 C-196.4059375 741.996875 -197.2103125 741.790625 -198.0390625 741.578125 C-202.02480463 740.03976839 -205.15694175 737.97157719 -208.6484375 735.54296875 C-210.55580199 734.16884423 -210.55580199 734.16884423 -212.6015625 733.203125 C-211.97418595 729.71681732 -210.60423945 727.49612023 -208.5390625 724.640625 C-207.90871094 723.7640625 -207.27835938 722.8875 -206.62890625 721.984375 C-205.95988281 721.0665625 -205.29085937 720.14875 -204.6015625 719.203125 C-203.94285156 718.2853125 -203.28414062 717.3675 -202.60546875 716.421875 C-198.39689884 710.58074093 -194.06476361 704.85186391 -189.6015625 699.203125 C-181.32418026 700.01067449 -175.51558441 704.94319141 -168.94140625 709.609375 C-166.26826368 711.43014656 -163.51674341 712.80626748 -160.6015625 714.203125 C-158.99000585 715.14897839 -157.38661056 716.1087986 -155.7890625 717.078125 C-148.12794488 721.71390638 -140.58350208 725.86151049 -132.2265625 729.1328125 C-128.38693633 730.64290938 -124.62140519 732.13903651 -120.9765625 734.078125 C-94.43691363 747.6381444 -64.11617685 753.42924399 -35.0390625 758.390625 C-34.07718018 758.55747803 -33.11529785 758.72433105 -32.12426758 758.89624023 C-20.84135817 760.7833551 -9.64754743 761.36469826 1.78125 761.40625 C3.03436981 761.41195007 4.28748962 761.41765015 5.57858276 761.42352295 C8.22246472 761.43291842 10.8663581 761.43948506 13.51025391 761.44335938 C17.46403469 761.44984138 21.41743472 761.48402338 25.37109375 761.515625 C46.90088367 761.60633721 68.03032514 760.04633548 89.0859375 755.390625 C90.28234863 755.13418213 91.47875977 754.87773926 92.71142578 754.61352539 C134.03105288 745.60796564 174.53971562 730.95131751 210.3984375 708.203125 C211.02862793 707.80416016 211.65881836 707.40519531 212.30810547 706.99414062 C229.2904159 696.14712106 245.29171436 683.77191065 260.1796875 670.203125 C261.99112096 668.57028357 263.82243944 666.99475607 265.7109375 665.453125 C268.44249532 663.16623939 270.89076817 660.73282363 273.3984375 658.203125 C274.27242187 657.34074219 275.14640625 656.47835937 276.046875 655.58984375 C285.55863784 646.17347108 294.0540909 636.13355824 302.4140625 625.68359375 C303.74677293 624.01770571 305.086745 622.35760331 306.43359375 620.703125 C307.10261719 619.878125 307.77164063 619.053125 308.4609375 618.203125 C309.13253906 617.378125 309.80414062 616.553125 310.49609375 615.703125 C312.33378241 613.28809267 313.85884706 610.81430538 315.3984375 608.203125 C316.0378125 607.44 316.6771875 606.676875 317.3359375 605.890625 C319.89927303 602.55052113 321.6244573 599.00585916 323.3984375 595.203125 C324.0584375 595.203125 324.7184375 595.203125 325.3984375 595.203125 C325.49125 594.1821875 325.49125 594.1821875 325.5859375 593.140625 C326.47167444 589.93834528 327.98150393 587.94481439 329.95703125 585.31640625 C332.23965048 581.9698019 333.89702747 578.34718602 335.66015625 574.70703125 C336.93353685 572.14023934 338.23804287 569.62108807 339.60546875 567.10546875 C343.72796046 559.52018721 347.41321096 552.11515597 350.3515625 543.984375 C351.25490596 541.58444759 352.25767339 539.39905918 353.4609375 537.140625 C355.63322191 532.99670895 356.97543156 528.65001856 358.3984375 524.203125 C359.29405471 521.51627338 360.30003306 518.93683555 361.3984375 516.328125 C366.74458325 503.07717231 369.14438412 489.08022724 371.83691406 475.11132812 C372.35920598 472.40631016 372.88659679 469.70247674 373.421875 467 C373.56286621 466.28682617 373.70385742 465.57365234 373.84912109 464.83886719 C374.17046184 463.2970029 374.50371572 461.75737099 374.86573792 460.22454834 C378.98013934 442.61051138 378.74457143 424.34467594 378.71411133 406.35742188 C378.71095314 402.47236984 378.73450358 398.5880836 378.75976562 394.703125 C378.81666265 372.85943101 376.76441605 351.62697785 372.2109375 330.265625 C372.0625946 329.5566507 371.91425171 328.84767639 371.76141357 328.11721802 C368.83157176 314.19187721 364.96045031 300.68425034 360.3984375 287.203125 C360.07182129 286.20120117 359.74520508 285.19927734 359.40869141 284.16699219 C351.43633384 259.75091041 340.29544378 235.83492773 326.3984375 214.203125 C325.99850586 213.57631836 325.59857422 212.94951172 325.18652344 212.30371094 C313.00007098 193.32449321 299.286991 175.29186028 283.8359375 158.8515625 C282.07632846 156.9396796 280.39302767 155.02567203 278.73828125 153.02734375 C275.57342867 149.20732971 272.24910516 145.89429247 268.3984375 142.765625 C265.3984375 140.203125 265.3984375 140.203125 262.9609375 137.203125 C260.82921457 134.70744937 259.22928215 133.25781813 256.5859375 131.453125 C255.008125 130.339375 255.008125 130.339375 253.3984375 129.203125 C253.3984375 128.543125 253.3984375 127.883125 253.3984375 127.203125 C252.87378906 126.97625 252.34914063 126.749375 251.80859375 126.515625 C248.5577327 124.74530197 245.73501383 122.48586227 242.8359375 120.203125 C239.74036418 117.78200621 236.67117156 115.3849477 233.3984375 113.203125 C233.3984375 112.543125 233.3984375 111.883125 233.3984375 111.203125 C232.6146875 111.0175 231.8309375 110.831875 231.0234375 110.640625 C226.78634316 108.96039793 223.55339673 106.61978608 219.87890625 103.95703125 C216.82365942 101.79670711 213.68359673 99.98853763 210.3984375 98.203125 C210.3984375 97.543125 210.3984375 96.883125 210.3984375 96.203125 C209.6765625 95.914375 208.9546875 95.625625 208.2109375 95.328125 C205.60677083 94.28645833 203.00260417 93.24479167 200.3984375 92.203125 C200.3984375 91.543125 200.3984375 90.883125 200.3984375 90.203125 C199.50125 89.9865625 199.50125 89.9865625 198.5859375 89.765625 C196.83693346 89.3158811 195.11166727 88.77420159 193.3984375 88.203125 C193.3984375 87.543125 193.3984375 86.883125 193.3984375 86.203125 C192.17253906 85.83960938 192.17253906 85.83960938 190.921875 85.46875 C186.74331075 83.96780231 182.95343751 82.00282145 179.0234375 79.953125 C171.93967936 76.32728759 164.84830793 73.31181758 157.33984375 70.6875 C154.22230101 69.57180336 151.26699627 68.22243813 148.2734375 66.80859375 C141.95687955 63.90207929 135.4784831 61.79602872 128.8359375 59.765625 C128.21071198 59.57336334 127.58548645 59.38110168 126.9413147 59.18301392 C98.01162758 50.32047872 68.28403687 44.2069169 37.96484375 43.9296875 C36.70538437 43.91711411 35.44592499 43.90454071 34.14830017 43.8915863 C30.08580547 43.8588951 26.02353867 43.83863912 21.9609375 43.828125 C21.26847931 43.82626568 20.57602112 43.82440636 19.86257935 43.82249069 C-2.96925083 43.77742809 -25.1538946 44.76818397 -47.6015625 49.203125 C-48.87016113 49.44417969 -50.13875977 49.68523437 -51.44580078 49.93359375 C-100.28041896 59.45984103 -149.70122239 79.31130399 -189.3046875 109.64453125 C-191.66210678 111.24420862 -193.92492052 112.24921536 -196.6015625 113.203125 C-196.6015625 113.863125 -196.6015625 114.523125 -196.6015625 115.203125 C-199.0765625 116.193125 -199.0765625 116.193125 -201.6015625 117.203125 C-201.6015625 117.863125 -201.6015625 118.523125 -201.6015625 119.203125 C-204.0765625 120.193125 -204.0765625 120.193125 -206.6015625 121.203125 C-206.6015625 121.863125 -206.6015625 122.523125 -206.6015625 123.203125 C-208.59440388 124.5471343 -210.59575921 125.87853792 -212.6015625 127.203125 C-214.29030129 128.84742329 -215.95461765 130.51696718 -217.6015625 132.203125 C-229.74120214 143.203125 -229.74120214 143.203125 -232.6015625 143.203125 C-232.9315625 144.193125 -233.2615625 145.183125 -233.6015625 146.203125 C-235.03248094 147.36782605 -236.46611811 148.52946717 -237.91796875 149.66796875 C-240.43857875 151.966344 -242.22670812 154.70193141 -244.109375 157.53125 C-245.89209483 159.5286429 -247.05306202 159.63154773 -249.6015625 160.203125 C-250.89816684 162.69346886 -250.89816684 162.69346886 -251.6015625 165.203125 C-252.2615625 165.203125 -252.9215625 165.203125 -253.6015625 165.203125 C-253.84519531 165.74582031 -254.08882812 166.28851563 -254.33984375 166.84765625 C-255.89964323 169.75960388 -257.7909994 172.2597846 -259.7890625 174.890625 C-260.18544922 175.41519287 -260.58183594 175.93976074 -260.99023438 176.48022461 C-264.02876561 180.48993969 -267.1356715 184.44344105 -270.2890625 188.36328125 C-271.78852995 190.27484455 -271.78852995 190.27484455 -272.6015625 193.203125 C-273.2615625 193.203125 -273.9215625 193.203125 -274.6015625 193.203125 C-274.86324219 193.92886719 -275.12492187 194.65460938 -275.39453125 195.40234375 C-276.62914386 198.26712446 -278.08022907 200.49867845 -279.9140625 203.015625 C-285.58438393 210.6631987 -285.58438393 210.6631987 -289.6015625 219.203125 C-290.2615625 219.203125 -290.9215625 219.203125 -291.6015625 219.203125 C-291.9315625 220.853125 -292.2615625 222.503125 -292.6015625 224.203125 C-293.2615625 224.203125 -293.9215625 224.203125 -294.6015625 224.203125 C-295.02115234 225.28980469 -295.02115234 225.28980469 -295.44921875 226.3984375 C-296.53312467 229.03655428 -297.73824786 231.54133384 -299.0390625 234.078125 C-301.05686434 238.06597006 -302.89571013 242.07316664 -304.6015625 246.203125 C-305.2615625 246.203125 -305.9215625 246.203125 -306.6015625 246.203125 C-306.70855469 246.90308594 -306.81554687 247.60304688 -306.92578125 248.32421875 C-307.69242759 251.5902208 -308.93965199 254.25334835 -310.4140625 257.265625 C-312.86443512 262.44708117 -314.86341076 267.58332671 -316.546875 273.05859375 C-317.44107684 275.72463997 -318.4380916 278.27714304 -319.5078125 280.875 C-323.34682414 290.37872199 -325.8873303 300.33291873 -328.6015625 310.203125 C-328.87822754 311.19795898 -329.15489258 312.19279297 -329.43994141 313.21777344 C-336.40584282 338.67643432 -338.589106 364.96175147 -340.6015625 391.203125 C-345.54277484 392.14093085 -350.40263578 392.51630793 -355.4140625 392.765625 C-356.23559814 392.8080835 -357.05713379 392.85054199 -357.90356445 392.89428711 C-366.13808657 393.28618192 -374.36008062 393.29809726 -382.6015625 393.203125 C-382.98466732 375.58423255 -382.41327998 358.60640532 -379.6015625 341.203125 C-379.42463867 340.089375 -379.24771484 338.975625 -379.06542969 337.828125 C-375.91351881 318.31785114 -372.03223364 298.9215208 -365.6015625 280.203125 C-365.00214844 278.35267578 -365.00214844 278.35267578 -364.390625 276.46484375 C-362.11923113 269.49059747 -359.67522353 262.69318443 -356.7734375 255.94921875 C-355.71515448 253.46930888 -354.74524344 250.97358441 -353.7890625 248.453125 C-351.70021651 243.16252327 -349.12263975 238.13219359 -346.5065918 233.08691406 C-344.18148334 228.55558509 -342.31639715 224.00038828 -340.6015625 219.203125 C-339.9415625 219.203125 -339.2815625 219.203125 -338.6015625 219.203125 C-338.52550781 218.52894531 -338.44945312 217.85476563 -338.37109375 217.16015625 C-337.36573959 213.29694257 -335.39665725 210.23097177 -333.2890625 206.890625 C-330.12631627 201.76264084 -327.16484094 196.66402254 -324.6015625 191.203125 C-323.9415625 191.203125 -323.2815625 191.203125 -322.6015625 191.203125 C-322.4778125 190.625625 -322.3540625 190.048125 -322.2265625 189.453125 C-321.59507426 187.17976733 -320.71298059 185.2777721 -319.6015625 183.203125 C-318.9415625 183.203125 -318.2815625 183.203125 -317.6015625 183.203125 C-317.6015625 182.213125 -317.6015625 181.223125 -317.6015625 180.203125 C-316.9415625 180.203125 -316.2815625 180.203125 -315.6015625 180.203125 C-315.4984375 179.64625 -315.3953125 179.089375 -315.2890625 178.515625 C-314.45977842 175.7262149 -313.25857194 173.5892186 -311.6015625 171.203125 C-310.9415625 171.203125 -310.2815625 171.203125 -309.6015625 171.203125 C-309.37855469 170.51863281 -309.15554688 169.83414063 -308.92578125 169.12890625 C-307.24482391 165.41493266 -304.96515297 162.54705897 -302.4140625 159.390625 C-301.92301025 158.77405029 -301.43195801 158.15747559 -300.92602539 157.5222168 C-297.70574269 153.50227722 -294.40220755 149.57009545 -290.94140625 145.75390625 C-289.39816491 144.03261103 -289.39816491 144.03261103 -287.6015625 141.203125 C-286.9415625 141.203125 -286.2815625 141.203125 -285.6015625 141.203125 C-285.3334375 140.44 -285.0653125 139.676875 -284.7890625 138.890625 C-283.65021745 136.31323882 -282.78739579 134.93357636 -280.6015625 133.203125 C-279.9415625 133.203125 -279.2815625 133.203125 -278.6015625 133.203125 C-278.33988281 132.625625 -278.07820313 132.048125 -277.80859375 131.453125 C-274.71439175 125.68529214 -269.75006243 121.13224337 -264.6015625 117.203125 C-261.95748996 114.69125608 -259.57595328 112.17128651 -257.2890625 109.328125 C-251.21271416 101.93492098 -243.01252 96.175709 -235.6015625 90.203125 C-235.06756836 89.7695166 -234.53357422 89.3359082 -233.98339844 88.88916016 C-225.75970879 82.22513579 -217.30520288 76.11945171 -208.41455078 70.37646484 C-206.70877586 69.27251194 -205.01225594 68.15429606 -203.31640625 67.03515625 C-150.52024101 32.4879635 -94.38229892 11.29191086 -32.08203125 2.33203125 C-31.38734238 2.23138367 -30.6926535 2.13073608 -29.97691345 2.02703857 C-19.98308848 0.63297604 -10.08855793 0.03996077 0 0 Z " fill="#121212" transform="translate(487.6015625,136.796875)"/>
<path d="M0 0 C1.19516739 -0.00095673 2.39033478 -0.00191345 3.62171936 -0.00289917 C6.13184665 -0.00357515 8.64197575 -0.0017618 11.15209961 0.00244141 C14.95886223 0.00779311 18.76550663 0.00247887 22.57226562 -0.00390625 C25.02734401 -0.00324527 27.48242232 -0.00196371 29.9375 0 C31.61778542 -0.00303635 31.61778542 -0.00303635 33.33201599 -0.00613403 C44.24714693 0.02568095 55.05603823 0.80062146 65.84765625 2.4453125 C67.11887329 2.63770508 67.11887329 2.63770508 68.41577148 2.83398438 C76.43303487 4.10291458 84.21225525 5.99144446 92.03515625 8.1328125 C93.01742188 8.390625 93.9996875 8.6484375 95.01171875 8.9140625 C102.08043486 10.78818896 109.06525197 12.92188673 116.03515625 15.1328125 C116.66566895 15.33165039 117.29618164 15.53048828 117.94580078 15.73535156 C125.26667691 18.05638349 132.2435603 20.49445753 139.03515625 24.1328125 C141.363117 25.14807794 143.69462189 26.14744638 146.03515625 27.1328125 C155.8238815 31.26177265 165.13365305 35.49473632 174.08203125 41.26171875 C176.90532598 43.05055231 179.76639425 44.6387332 182.72265625 46.1953125 C187.29218172 48.63947729 191.46786424 51.42624692 195.6640625 54.4609375 C198.56230918 56.50451176 201.56914349 58.31356005 204.63671875 60.08984375 C205.09820313 60.43402344 205.5596875 60.77820313 206.03515625 61.1328125 C206.03515625 61.7928125 206.03515625 62.4528125 206.03515625 63.1328125 C207.02515625 63.1328125 208.01515625 63.1328125 209.03515625 63.1328125 C209.03515625 63.7928125 209.03515625 64.4528125 209.03515625 65.1328125 C209.76734375 65.39449219 210.49953125 65.65617187 211.25390625 65.92578125 C217.8216076 68.77608984 223.09401354 74.06497383 228.03515625 79.1328125 C229.38301851 80.30675705 230.73772468 81.47287087 232.09765625 82.6328125 C235.13822418 85.26004438 237.52383065 87.9936555 240.03515625 91.1328125 C241.2358851 92.20245742 242.45422638 93.25245944 243.68359375 94.2890625 C247.96118171 97.99308675 251.82440703 101.97874384 255.66015625 106.1328125 C256.28921875 106.80570312 256.91828125 107.47859375 257.56640625 108.171875 C260.58331847 111.41411676 263.56561263 114.68717348 266.49609375 118.0078125 C266.9864209 118.56210937 267.47674805 119.11640625 267.98193359 119.6875 C269.03515625 121.1328125 269.03515625 121.1328125 269.03515625 123.1328125 C269.69515625 123.1328125 270.35515625 123.1328125 271.03515625 123.1328125 C272.60533333 125.0993748 274.04703161 127.0642537 275.47265625 129.1328125 C275.91077637 129.75857178 276.34889648 130.38433105 276.80029297 131.02905273 C277.73679127 132.36981995 278.66995008 133.7129247 279.60009766 135.05810547 C281.012456 137.09999407 282.43504891 139.13441617 283.859375 141.16796875 C292.5752771 153.66258137 300.43432939 166.34076541 307.03955078 180.07666016 C308.00838657 182.077527 309.00164708 184.06451115 310 186.05078125 C331.21414609 228.87358396 340.22171716 276.34334146 340.34765625 323.8203125 C340.35027466 324.77325195 340.35289307 325.72619141 340.35559082 326.70800781 C340.36307425 352.39112233 338.10507477 378.12204499 332.03515625 403.1328125 C331.60976562 404.95619141 331.60976562 404.95619141 331.17578125 406.81640625 C329.17366287 414.83366099 326.62153614 422.66301535 324.03515625 430.5078125 C323.70290039 431.51875977 323.37064453 432.52970703 323.02832031 433.57128906 C321.00784119 439.59299234 318.70348266 445.3716532 316.03515625 451.1328125 C315.54015625 452.2878125 315.04515625 453.4428125 314.53515625 454.6328125 C310.27256852 464.57885054 305.66161673 474.3521157 301.03515625 484.1328125 C300.37515625 484.1328125 299.71515625 484.1328125 299.03515625 484.1328125 C298.82890625 484.9371875 298.62265625 485.7415625 298.41015625 486.5703125 C296.89081326 490.50679208 294.87082886 493.57580349 292.484375 497.03125 C290.89254208 499.33962226 289.46786751 501.72325265 288.03515625 504.1328125 C285.31581719 508.35247656 282.3874502 512.34391874 279.3046875 516.30078125 C277.85243813 518.21359087 277.85243813 518.21359087 277.03515625 521.1328125 C276.37515625 521.1328125 275.71515625 521.1328125 275.03515625 521.1328125 C274.7825 521.69484375 274.52984375 522.256875 274.26953125 522.8359375 C272.85890996 525.46076446 271.17669646 527.58070542 269.28515625 529.8828125 C266.13488644 533.74332496 263.13931213 537.66716201 260.26171875 541.734375 C259.85695313 542.19585938 259.4521875 542.65734375 259.03515625 543.1328125 C258.37515625 543.1328125 257.71515625 543.1328125 257.03515625 543.1328125 C256.77347656 543.7103125 256.51179687 544.2878125 256.2421875 544.8828125 C253.12168876 550.69966453 248.15038539 555.09447371 243.03515625 559.1328125 C242.33390625 560.0196875 241.63265625 560.9065625 240.91015625 561.8203125 C237.80094777 565.68268328 233.96260355 568.58057757 230.1015625 571.66015625 C227.53133699 573.73270752 225.02684792 575.85958164 222.53710938 578.02734375 C210.29941145 588.63029302 197.03068474 597.99981774 183.03515625 606.1328125 C182.47280273 606.46667969 181.91044922 606.80054688 181.33105469 607.14453125 C138.6310867 632.45867205 92.1924995 646.57147138 43.03515625 652.1328125 C42.38160156 652.21532761 41.72804688 652.29784271 41.0546875 652.38285828 C35.51497607 653.05464656 30.05052432 653.32039015 24.47265625 653.37109375 C23.57580109 653.38084229 22.67894592 653.39059082 21.75491333 653.40063477 C-11.03254588 653.68284432 -44.84502065 652.47200811 -76.03125 641.15625 C-79.02250187 640.11269742 -82.02898837 639.23825029 -85.0769043 638.37915039 C-92.67510853 636.23364614 -99.92948416 633.69368468 -107.22265625 630.66015625 C-110.41356175 629.33662706 -113.64005605 628.14871347 -116.89160156 626.98364258 C-131.57938188 621.68170342 -144.60464682 614.34813762 -157.6875 605.8671875 C-161.37564982 603.48068894 -165.12865901 601.27251713 -168.96484375 599.1328125 C-168.96484375 598.4728125 -168.96484375 597.8128125 -168.96484375 597.1328125 C-170.28484375 596.8028125 -171.60484375 596.4728125 -172.96484375 596.1328125 C-172.96484375 595.4728125 -172.96484375 594.8128125 -172.96484375 594.1328125 C-173.52171875 593.8646875 -174.07859375 593.5965625 -174.65234375 593.3203125 C-177.16196898 592.03158603 -179.55818611 590.60354772 -181.96484375 589.1328125 C-181.50036985 584.09943207 -179.06548338 581.14248817 -176.02734375 577.3203125 C-175.57166016 576.72283203 -175.11597656 576.12535156 -174.64648438 575.50976562 C-173.47340107 574.00691366 -172.22427428 572.5640788 -170.96484375 571.1328125 C-170.30484375 571.1328125 -169.64484375 571.1328125 -168.96484375 571.1328125 C-168.72636719 570.5965625 -168.48789062 570.0603125 -168.2421875 569.5078125 C-166.61243406 566.47756758 -164.61099837 563.86996143 -162.52734375 561.1328125 C-161.74488281 560.1015625 -160.96242188 559.0703125 -160.15625 558.0078125 C-159.43308594 557.0590625 -158.70992187 556.1103125 -157.96484375 555.1328125 C-157.43761719 554.3490625 -156.91039062 553.5653125 -156.3671875 552.7578125 C-155.67302734 551.9534375 -155.67302734 551.9534375 -154.96484375 551.1328125 C-153.97484375 551.1328125 -152.98484375 551.1328125 -151.96484375 551.1328125 C-151.96484375 551.7928125 -151.96484375 552.4528125 -151.96484375 553.1328125 C-151.16240234 553.2565625 -151.16240234 553.2565625 -150.34375 553.3828125 C-147.09407131 554.40734174 -144.69667491 556.19374751 -141.90234375 558.1328125 C-137.66662005 561.09784668 -137.66662005 561.09784668 -132.96484375 563.1328125 C-132.96484375 563.7928125 -132.96484375 564.4528125 -132.96484375 565.1328125 C-132.10761719 565.38675781 -131.25039063 565.64070312 -130.3671875 565.90234375 C-126.77544673 567.20130855 -123.80095521 568.85768796 -120.52734375 570.8203125 C-109.91461631 577.03142828 -99.01325428 581.95655342 -87.375 585.9453125 C-83.97024943 587.13093011 -80.6282814 588.42851492 -77.27734375 589.7578125 C-65.84935163 594.16692965 -53.92049442 596.60443504 -41.96484375 599.1328125 C-40.06605469 599.53693359 -40.06605469 599.53693359 -38.12890625 599.94921875 C30.93869231 613.77721804 103.85222514 600.2829927 163.03320312 561.52905273 C174.5157327 553.85323133 185.65244437 545.7576599 196.03515625 536.6328125 C199.03515625 534.1328125 199.03515625 534.1328125 201.03515625 534.1328125 C201.36515625 533.1428125 201.69515625 532.1528125 202.03515625 531.1328125 C203.85546875 529.58984375 203.85546875 529.58984375 206.16015625 527.9453125 C210.80139599 524.4478854 214.33450877 520.58022741 218.03515625 516.1328125 C219.34355382 514.6707974 220.65619902 513.21257458 221.97265625 511.7578125 C227.12246281 505.96802998 232.24770659 500.0598166 236.41015625 493.5078125 C236.94640625 492.7240625 237.48265625 491.9403125 238.03515625 491.1328125 C238.69515625 491.1328125 239.35515625 491.1328125 240.03515625 491.1328125 C240.28265625 490.4521875 240.53015625 489.7715625 240.78515625 489.0703125 C242.27713533 485.56416167 244.10351136 482.41660882 246.03515625 479.1328125 C246.69515625 479.1328125 247.35515625 479.1328125 248.03515625 479.1328125 C249.11040819 476.48052438 250.12971776 473.84912796 251.03515625 471.1328125 C251.69515625 471.1328125 252.35515625 471.1328125 253.03515625 471.1328125 C253.36515625 469.4828125 253.69515625 467.8328125 254.03515625 466.1328125 C254.69515625 466.1328125 255.35515625 466.1328125 256.03515625 466.1328125 C256.36515625 464.4828125 256.69515625 462.8328125 257.03515625 461.1328125 C257.69515625 461.1328125 258.35515625 461.1328125 259.03515625 461.1328125 C260.02515625 458.1628125 261.01515625 455.1928125 262.03515625 452.1328125 C262.69515625 452.1328125 263.35515625 452.1328125 264.03515625 452.1328125 C264.24140625 451.2253125 264.44765625 450.3178125 264.66015625 449.3828125 C265.99833942 444.63659451 268.34394964 440.42373197 270.58203125 436.05078125 C273.55008181 430.09074425 275.42731396 423.92702885 277.2890625 417.55078125 C277.92634052 415.48546662 278.68761822 413.45910571 279.47265625 411.4453125 C294.53963452 371.97296839 295.7734214 324.44447947 289.03515625 283.1328125 C288.86886719 282.10720215 288.70257812 281.0815918 288.53125 280.02490234 C283.4479657 249.8499619 273.27295393 221.16931862 259.03515625 194.1328125 C258.56980469 193.21113281 258.10445312 192.28945313 257.625 191.33984375 C249.83996109 176.33718859 239.57104041 162.34956426 228.75390625 149.40234375 C227.03515625 147.1328125 227.03515625 147.1328125 227.03515625 145.1328125 C226.04515625 144.8028125 225.05515625 144.4728125 224.03515625 144.1328125 C222.68106305 142.14680913 221.35058001 140.14463707 220.03515625 138.1328125 C218.39269198 136.4422899 216.72221163 134.77883792 215.03515625 133.1328125 C214.08923446 132.17897505 213.1452696 131.22319352 212.203125 130.265625 C192.71241642 109.51965425 192.71241642 109.51965425 169.03515625 95.1328125 C169.03515625 94.4728125 169.03515625 93.8128125 169.03515625 93.1328125 C168.35453125 92.8853125 167.67390625 92.6378125 166.97265625 92.3828125 C163.46350479 90.88955656 160.33304435 89.05158376 157.03515625 87.1328125 C155.70869469 86.4525758 154.37906748 85.77788989 153.03515625 85.1328125 C153.03515625 84.4728125 153.03515625 83.8128125 153.03515625 83.1328125 C152.37773438 83.05675781 151.7203125 82.98070312 151.04296875 82.90234375 C146.94308554 81.85341259 143.58912358 79.87316728 139.91015625 77.8203125 C133.42427683 74.2904268 127.04855508 71.46692473 120.03515625 69.1328125 C118.34255426 68.47920773 116.65495311 67.8125021 114.97265625 67.1328125 C114.14765625 66.80152344 113.32265625 66.47023438 112.47265625 66.12890625 C110.90480656 65.48819845 109.34178307 64.8354806 107.78515625 64.16796875 C96.16168924 59.27904428 83.93370363 56.21049906 71.66015625 53.4453125 C70.78915283 53.24301025 69.91814941 53.04070801 69.02075195 52.83227539 C51.75166791 49.07826264 34.28244738 48.75988119 16.67700195 48.76220703 C13.00229011 48.75784766 9.32879678 48.72142707 5.65429688 48.68359375 C-15.33685741 48.58318997 -35.75502149 51.046188 -56.08984375 56.3203125 C-57.81122559 56.75923828 -57.81122559 56.75923828 -59.56738281 57.20703125 C-71.36714613 60.32677038 -82.68010414 64.51360384 -93.96484375 69.1328125 C-94.71121094 69.43155273 -95.45757812 69.73029297 -96.2265625 70.03808594 C-123.74250499 81.09866882 -149.87580617 97.96710609 -171.67578125 118.02734375 C-174.49242616 120.61808028 -177.37830658 123.12273653 -180.2734375 125.625 C-181.99564939 127.11632869 -181.99564939 127.11632869 -183.5625 128.828125 C-184.96484375 130.1328125 -184.96484375 130.1328125 -186.96484375 130.1328125 C-187.23167969 130.72964844 -187.49851562 131.32648438 -187.7734375 131.94140625 C-188.98971307 134.17855574 -190.16841634 135.47701317 -192.02734375 137.1953125 C-196.7860721 141.80470837 -200.83845639 146.96148047 -204.96484375 152.1328125 C-205.58617187 152.90109375 -206.2075 153.669375 -206.84765625 154.4609375 C-209.6684955 158.02081581 -212.41561841 161.63305445 -215.15234375 165.2578125 C-215.9712207 166.33095703 -215.9712207 166.33095703 -216.80664062 167.42578125 C-217.32677734 168.11542969 -217.84691406 168.80507813 -218.3828125 169.515625 C-218.85485107 170.13840332 -219.32688965 170.76118164 -219.81323242 171.40283203 C-221.14736395 173.24294438 -221.14736395 173.24294438 -221.96484375 176.1328125 C-222.62484375 176.1328125 -223.28484375 176.1328125 -223.96484375 176.1328125 C-224.25359375 176.8546875 -224.54234375 177.5765625 -224.83984375 178.3203125 C-225.88151042 180.92447917 -226.92317708 183.52864583 -227.96484375 186.1328125 C-228.62484375 186.1328125 -229.28484375 186.1328125 -229.96484375 186.1328125 C-230.29484375 187.3084375 -230.62484375 188.4840625 -230.96484375 189.6953125 C-232.44274376 194.18531347 -234.55192163 198.20311069 -236.83984375 202.3203125 C-240.14120449 208.30210486 -242.65169945 214.26588604 -244.82421875 220.76171875 C-245.90736666 223.96294014 -247.12952395 227.06562584 -248.40234375 230.1953125 C-253.62192752 243.6641438 -257.35965869 257.93850118 -259.96484375 272.1328125 C-260.20847656 273.42574219 -260.45210937 274.71867187 -260.703125 276.05078125 C-263.52570061 291.9458625 -264.58756021 308.06450449 -265.96484375 324.1328125 C-281.47484375 324.1328125 -296.98484375 324.1328125 -312.96484375 324.1328125 C-313.84437083 286.31314785 -309.27950942 247.14936901 -293.96484375 212.1328125 C-293.3335105 210.5519938 -292.70786437 208.9688831 -292.08984375 207.3828125 C-289.89922402 201.8788118 -287.43869603 196.5140788 -284.96484375 191.1328125 C-284.31008057 189.70606201 -284.31008057 189.70606201 -283.64208984 188.25048828 C-282.30361723 185.35120376 -280.9484301 182.46021975 -279.58984375 179.5703125 C-279.14640625 178.60673828 -278.70296875 177.64316406 -278.24609375 176.65039062 C-275.48157438 170.79355886 -272.34973829 165.58340414 -268.54394531 160.3449707 C-266.63906488 157.67642994 -265.0519833 154.90834628 -263.52734375 152.0078125 C-263.03363281 151.07710937 -262.53992188 150.14640625 -262.03125 149.1875 C-261.67933594 148.50945312 -261.32742188 147.83140625 -260.96484375 147.1328125 C-260.30484375 147.1328125 -259.64484375 147.1328125 -258.96484375 147.1328125 C-258.89007813 146.60558594 -258.8153125 146.07835937 -258.73828125 145.53515625 C-257.65057117 142.15666282 -255.65981042 139.53231072 -253.58984375 136.6953125 C-253.14866211 136.08349121 -252.70748047 135.47166992 -252.25292969 134.84130859 C-248.23184819 129.34375831 -243.870932 124.17560229 -239.421875 119.0234375 C-237.47561646 116.73372157 -235.65849791 114.44169376 -233.90234375 112.0078125 C-223.66727752 97.99410264 -210.13741887 86.17771418 -196.69921875 75.33984375 C-194.90656791 73.89291843 -193.12481187 72.43236676 -191.35546875 70.95703125 C-177.09035185 59.07646791 -162.12751197 49.25958788 -145.96484375 40.1328125 C-145.17094238 39.68019043 -144.37704102 39.22756836 -143.55908203 38.76123047 C-100.63417145 14.47852114 -49.40409898 -0.08911425 0 0 Z " fill="#111111" transform="translate(491.96484375,217.8671875)"/>
<path d="M0 0 C55.656997 -0.64601872 111.3794098 1.17436231 167 3.0625 C168.80179214 3.12253204 168.80179214 3.12253204 170.63998413 3.18377686 C173.96850663 3.29627217 177.29676921 3.41436879 180.625 3.53515625 C181.57284866 3.56739792 182.52069733 3.59963959 183.49726868 3.63285828 C188.72039927 3.83216513 193.82319679 4.2725777 199 5 C201.21196457 23.89991577 203.02152041 42.81555016 204.6287384 61.77541351 C204.94417361 65.48673415 205.26364799 69.19770675 205.58300781 72.90869141 C205.71493606 74.44201654 205.84686355 75.97534173 205.97879028 77.50866699 C206.04469486 78.27453629 206.11059944 79.04040558 206.17850113 79.82948303 C206.37940507 82.16595747 206.57987419 84.50246887 206.78024292 86.83898926 C208.17772729 103.12558652 209.61522 119.40861094 211.05669785 135.69136429 C211.30879911 138.53922347 211.56075185 141.38709578 211.81264973 144.23497295 C211.93371741 145.60364943 212.05482026 146.97232279 212.17595959 148.34099293 C212.46529072 151.61085228 212.75372493 154.88078709 213.04093933 158.15083313 C213.55280729 163.97585667 214.07179394 169.79990088 214.61523438 175.62207031 C216.36465932 194.57963424 216.36465932 194.57963424 216 204 C198.63197161 205.45637348 181.43005242 206.31453454 164 206 C162.12510597 191.7424211 160.583787 177.44670792 159.02319336 163.15209961 C158.71930249 160.36906092 158.41397834 157.58618621 158.10717773 154.8034668 C155.91110157 134.88336416 153.87977563 114.9525149 152 95 C151.29915283 95.70084717 150.59830566 96.40169434 149.8762207 97.1237793 C128 119 128 119 125.25854492 121.70629883 C122.96750232 123.93996176 122.96750232 123.93996176 121.125 126.4375 C118.86367838 129.16438783 116.42318057 131.27790359 113.71875 133.546875 C108.89766519 137.62288306 105.13986045 142.28572878 101.35546875 147.3046875 C98.82184879 150.20385462 96.08839955 152.59499731 93.16967773 155.09472656 C89.43073085 158.37803268 85.9451646 161.91078926 82.4375 165.4375 C81.72142578 166.14970703 81.00535156 166.86191406 80.26757812 167.59570312 C74.66373521 173.20974412 69.40761159 179.05822397 64.375 185.1875 C60.50933826 189.76525732 56.24937224 193.66719931 51.6953125 197.53125 C48.33000339 200.44681734 45.36896555 203.54588855 42.5625 207 C40.38754444 209.54628943 38.21201877 211.50650562 35.609375 213.5859375 C31.59682129 217.11153081 28.22893996 221.3870163 25 225.625 C22.78621389 228.25387101 20.36518423 230.32938134 17.734375 232.52734375 C14.53825929 235.24116272 11.68094819 238.11476735 9.125 241.4375 C7.36773571 243.556554 5.78730497 245.08214847 3.6875 246.8125 C0.33410594 249.60103664 -2.4298473 252.67863733 -5.25 255.99609375 C-6.92984577 257.91966714 -8.67650219 259.71313496 -10.5 261.5 C-12.95448488 263.91065479 -15.2544206 266.39352391 -17.5 269 C-18.66648191 270.33349498 -19.83314936 271.66682767 -21 273 C-21.58910156 273.69222656 -22.17820312 274.38445312 -22.78515625 275.09765625 C-23.37167969 275.74605469 -23.95820313 276.39445312 -24.5625 277.0625 C-25.33787109 277.94615234 -25.33787109 277.94615234 -26.12890625 278.84765625 C-28 280 -28 280 -30.7265625 280.0390625 C-35.1619924 278.63115755 -38.20494797 276.19029971 -41.8125 273.3125 C-43.22902991 272.21298754 -44.64698889 271.11531361 -46.06640625 270.01953125 C-46.7433252 269.49439941 -47.42024414 268.96926758 -48.11767578 268.42822266 C-50.42769295 266.67548589 -52.81248364 265.06958208 -55.25 263.5 C-58.215656 261.57874639 -60.53451206 259.54501981 -63 257 C-66.52830564 254.16984845 -70.09115144 251.53016166 -74 249.25 C-74.66 248.8375 -75.32 248.425 -76 248 C-76 247.34 -76 246.68 -76 246 C-76.72058594 245.73960937 -77.44117188 245.47921875 -78.18359375 245.2109375 C-81.10831339 243.95342975 -83.46700288 242.46230708 -86.0625 240.625 C-87.31740234 239.74714844 -87.31740234 239.74714844 -88.59765625 238.8515625 C-91 237 -91 237 -92.8984375 235.0625 C-95.54526882 232.46486629 -98.50035695 230.44168823 -101.5625 228.375 C-102.13935547 227.98054687 -102.71621094 227.58609375 -103.31054688 227.1796875 C-105.86298604 225.43684553 -108.42838334 223.71441111 -111 222 C-111 221.34 -111 220.68 -111 220 C-111.99 220 -112.98 220 -114 220 C-114 219.34 -114 218.68 -114 218 C-114.56847656 217.72929688 -115.13695312 217.45859375 -115.72265625 217.1796875 C-118.07628624 215.96048294 -120.23482145 214.59854232 -122.4375 213.125 C-123.22640625 212.60164062 -124.0153125 212.07828125 -124.828125 211.5390625 C-127 210 -127 210 -129.6875 207.5 C-130.8321875 206.7575 -130.8321875 206.7575 -132 206 C-136.88240597 207.0581895 -139.40778686 208.99466503 -142.75 212.625 C-144.13255396 214.11571295 -145.5420831 215.58290478 -147 217 C-147.66 217 -148.32 217 -149 217 C-149.33 217.99 -149.66 218.98 -150 220 C-151.671875 221.4296875 -151.671875 221.4296875 -153.75 222.875 C-157.20646143 225.28924596 -160.0438236 227.99432902 -163 231 C-167.88377418 235.54066897 -172.83456573 240.00876395 -177.875 244.375 C-181.4857233 247.5102371 -184.9938829 250.74905447 -188.5 254 C-192.62875106 257.82792274 -196.78486116 261.60858513 -201.04296875 265.29296875 C-203.3855915 267.33633431 -205.69273422 269.41680859 -208 271.5 C-211.76895856 274.90253203 -215.56943643 278.26408117 -219.40625 281.58984375 C-220.6430299 282.68415145 -221.83228131 283.83228131 -223 285 C-224.91015625 285.0078125 -224.91015625 285.0078125 -227 284 C-228.37395028 281.95341976 -229.39876254 280.09048505 -230.4375 277.875 C-230.76169922 277.20645996 -231.08589844 276.53791992 -231.41992188 275.84912109 C-235.19303649 267.88689056 -238.58135316 259.74398117 -242 251.625 C-242.29711884 250.92034607 -242.59423767 250.21569214 -242.90036011 249.48968506 C-243.75088137 247.46644375 -244.59545281 245.44084329 -245.4375 243.4140625 C-245.93121094 242.2276416 -246.42492187 241.0412207 -246.93359375 239.81884766 C-248 237 -248 237 -248 235 C-246.53125 233.5546875 -246.53125 233.5546875 -244.5 231.875 C-241.58375911 229.40309004 -238.84329692 226.87427217 -236.1875 224.125 C-232.2421233 220.10958702 -227.94981575 216.63528944 -223.55859375 213.12109375 C-221.37969941 211.31477371 -219.39717454 209.47383663 -217.4375 207.4375 C-216.2309375 206.2309375 -216.2309375 206.2309375 -215 205 C-214.34 205 -213.68 205 -213 205 C-212.67 204.01 -212.34 203.02 -212 202 C-210.34442971 200.52201683 -208.62553414 199.11417647 -206.875 197.75 C-202.88698483 194.56987951 -199.20688507 191.33223197 -195.6640625 187.671875 C-193.27847909 185.27509166 -190.72744074 183.09079027 -188.16796875 180.8828125 C-185.75157049 178.7842468 -183.37470976 176.645603 -181 174.5 C-179.74703125 173.37271484 -179.74703125 173.37271484 -178.46875 172.22265625 C-176.8614652 170.7755913 -175.25713732 169.32523307 -173.65625 167.87109375 C-172.58890625 166.91396484 -172.58890625 166.91396484 -171.5 165.9375 C-170.55640625 165.08478516 -170.55640625 165.08478516 -169.59375 164.21484375 C-168 163 -168 163 -166 163 C-165.67 162.01 -165.34 161.02 -165 160 C-163.50390625 158.4921875 -163.50390625 158.4921875 -161.5625 156.875 C-157.35507899 153.31312192 -153.27201333 149.63271546 -149.19921875 145.91796875 C-144.70672098 142 -144.70672098 142 -141 142 C-140.5359375 140.7934375 -140.5359375 140.7934375 -140.0625 139.5625 C-139 137 -139 137 -138 136 C-131.89078057 136 -129.14286369 138.14513658 -124.796875 142.30859375 C-122.90464462 144.18374231 -122.90464462 144.18374231 -120 146 C-120 146.66 -120 147.32 -120 148 C-119.34 148.185625 -118.68 148.37125 -118 148.5625 C-114.55954355 150.21105205 -112.33124426 152.29642866 -109.53515625 154.85546875 C-105.74808633 158.0590148 -101.67218137 160.83558175 -97.57250977 163.62304688 C-96.01469148 164.70165079 -94.50255239 165.84565147 -93 167 C-93 167.66 -93 168.32 -93 169 C-92.44828125 169.2578125 -91.8965625 169.515625 -91.328125 169.78125 C-88.65685825 171.17963125 -86.23148091 172.78763305 -83.75 174.5 C-82.85796875 175.1084375 -81.9659375 175.716875 -81.046875 176.34375 C-80.37140625 176.8903125 -79.6959375 177.436875 -79 178 C-79 178.66 -79 179.32 -79 180 C-77.68 180.33 -76.36 180.66 -75 181 C-75 181.66 -75 182.32 -75 183 C-74.443125 183.061875 -73.88625 183.12375 -73.3125 183.1875 C-70.68880656 184.10933824 -69.49459193 185.45458981 -67.63671875 187.46484375 C-64.73000695 190.1911868 -61.33268008 192.2627172 -58.01171875 194.44921875 C-57.34785156 194.96097656 -56.68398438 195.47273437 -56 196 C-56 196.66 -56 197.32 -56 198 C-55.44957031 198.24621094 -54.89914062 198.49242187 -54.33203125 198.74609375 C-51.53368301 200.25073326 -49.19289566 202.10992149 -46.6875 204.0625 C-40.93535447 208.46508567 -40.93535447 208.46508567 -34 209 C-28.65697431 205.38144292 -24.41584922 200.54383239 -20.33203125 195.59375 C-17.68663 192.42857783 -14.82938372 189.63798748 -11.5625 187.125 C-9.443446 185.36773571 -7.91785153 183.78730497 -6.1875 181.6875 C-3.3523042 178.2735433 -0.20891576 175.4427645 3.171875 172.578125 C5.14845971 170.91764787 5.14845971 170.91764787 7.375 168.5625 C9 167 9 167 11 167 C11.33 166.01 11.66 165.02 12 164 C13.44785217 162.74958221 14.90102404 161.50410902 16.39453125 160.30859375 C20.10550415 157.28383482 23.21892257 153.75750382 26.3125 150.125 C29.88741408 145.99950262 33.81910807 142.49644611 38 139 C43.38739784 134.44915462 48.46314228 129.8632586 53 124.4375 C55.43195146 121.55772117 58.00554608 119.30342609 61 117 C62.67958042 115.34634793 64.34405878 113.67732353 66 112 C66.97842378 111.02009101 67.95761109 110.04094389 68.9375 109.0625 C69.44023438 108.55976562 69.94296875 108.05703125 70.4609375 107.5390625 C75.0625 102.9375 75.0625 102.9375 76.55444336 101.44775391 C77.93861818 100.06147512 79.31519651 98.66762385 80.69140625 97.2734375 C83 95 83 95 85.9375 92.625 C88.21136605 90.77458349 90.07038555 88.82190711 91.9375 86.5625 C94.91882742 82.97546754 98.17391956 79.69206175 102 77 C102.66 77 103.32 77 104 77 C104.309375 76.1646875 104.309375 76.1646875 104.625 75.3125 C106.17121526 72.71204706 108.06917296 71.15247074 110.421875 69.28515625 C112.78763236 67.35858652 114.87182182 65.18274685 117 63 C118.66666667 61.33333333 120.33333333 59.66666667 122 58 C117.94209962 57.2609224 113.99478091 56.81695249 109.87573242 56.62695312 C108.68026291 56.57015884 107.4847934 56.51336456 106.25309753 56.45484924 C104.32377129 56.36891762 104.32377129 56.36891762 102.35546875 56.28125 C100.99566001 56.21838456 99.63586305 56.15526385 98.27607727 56.09190369 C94.6587683 55.92443791 91.04125494 55.76185808 87.42367554 55.60035324 C85.18684696 55.49997069 82.95010288 55.39788169 80.71337891 55.29519653 C63.0463435 54.4844762 45.38521433 53.77239551 27.70410156 53.34594727 C18.71386031 53.10038396 9.88846487 52.39772806 1 51 C-0.15683242 45.5000424 -0.12791911 40.16023272 -0.09765625 34.5703125 C-0.09553383 33.084814 -0.09553383 33.084814 -0.09336853 31.56930542 C-0.08779252 28.42117227 -0.07524442 25.27311148 -0.0625 22.125 C-0.0574819 19.98437603 -0.05291954 17.84375094 -0.04882812 15.703125 C-0.03783094 10.46872551 -0.02111675 5.23436793 0 0 Z " fill="#111111" transform="translate(490,409)"/>
<path d="M0 0 C3.96 0.33 7.92 0.66 12 1 C6.25 7.875 6.25 7.875 4 9 C4 8.01 4 7.02 4 6 C2.68 5.67 1.36 5.34 0 5 C0 3.35 0 1.7 0 0 Z " fill="#DCDCDC" transform="translate(601,465)"/>
<path d="M0 0 C0.33 1.32 0.66 2.64 1 4 C0.34 4 -0.32 4 -1 4 C-1.26167969 4.56589844 -1.52335938 5.13179688 -1.79296875 5.71484375 C-4.83404409 11.47221939 -8.9586638 17.25393809 -15 20 C-13.45463516 16.69291925 -11.57205999 13.75273101 -9.5 10.75 C-8.8915625 9.85796875 -8.283125 8.9659375 -7.65625 8.046875 C-7.1096875 7.37140625 -6.563125 6.6959375 -6 6 C-5.34 6 -4.68 6 -4 6 C-3.71125 5.195625 -3.4225 4.39125 -3.125 3.5625 C-2 1 -2 1 0 0 Z " fill="#D5D5D5" transform="translate(240,296)"/>
<path d="M0 0 C0.66 0.33 1.32 0.66 2 1 C1.34 1.94875 0.68 2.8975 0 3.875 C-2.17968457 6.66238955 -2.17968457 6.66238955 -2 9 C-4.475 8.01 -4.475 8.01 -7 7 C-5.66667905 3.00003714 -3.5042173 2.16217663 0 0 Z " fill="#212121" transform="translate(327,269)"/>
<path d="M0 0 C0.66 0.33 1.32 0.66 2 1 C1.4375 2.9375 1.4375 2.9375 0 5 C-3.625 5.75 -3.625 5.75 -7 6 C-2.25 1.125 -2.25 1.125 0 0 Z " fill="#DEDEDE" transform="translate(356,614)"/>
<path d="M0 0 C0.99 0 1.98 0 3 0 C3 0.66 3 1.32 3 2 C3.99 2 4.98 2 6 2 C5.67 2.99 5.34 3.98 5 5 C4.236875 4.835 3.47375 4.67 2.6875 4.5 C-0.03596236 3.90854604 -0.03596236 3.90854604 -3 4 C-1.6875 2 -1.6875 2 0 0 Z " fill="#2F2F2F" transform="translate(337,769)"/>
<path d="M0 0 C3 1 3 1 4.1875 3.0625 C4.455625 3.701875 4.72375 4.34125 5 5 C1 5 1 5 -1 4 C-0.67 2.68 -0.34 1.36 0 0 Z " fill="#EEEEEE" transform="translate(362,865)"/>
<path d="M0 0 C0.99 0.33 1.98 0.66 3 1 C2.67 2.32 2.34 3.64 2 5 C0.68 5.33 -0.64 5.66 -2 6 C-2 4.68 -2 3.36 -2 2 C-1.34 2 -0.68 2 0 2 C0 1.34 0 0.68 0 0 Z " fill="#D9D9D9" transform="translate(347,546)"/>
<path d="M0 0 C0.66 0.66 1.32 1.32 2 2 C-0.78407039 5.08236365 -1.80825346 5.95206337 -6 7 C-4.02 4.69 -2.04 2.38 0 0 Z " fill="#EAEAEA" transform="translate(255,282)"/>
<path d="M0 0 C1.65 0 3.3 0 5 0 C5 0.66 5 1.32 5 2 C5.66 2.33 6.32 2.66 7 3 C6.34 3 5.68 3 5 3 C4.67 3.66 4.34 4.32 4 5 C2 3.625 2 3.625 0 2 C0 1.34 0 0.68 0 0 Z " fill="#E3E3E3" transform="translate(680,266)"/>
<path d="M0 0 C2.64 0.33 5.28 0.66 8 1 C7.01 1.495 7.01 1.495 6 2 C6 2.66 6 3.32 6 4 C3.83125748 3.49396008 2.00032373 3.00016187 0 2 C0 1.34 0 0.68 0 0 Z " fill="#333333" transform="translate(447,817)"/>
<path d="M0 0 C0.33 1.32 0.66 2.64 1 4 C-0.65 4.66 -2.3 5.32 -4 6 C-2.25 1.125 -2.25 1.125 0 0 Z M-6 6 C-5.01 6.495 -5.01 6.495 -4 7 C-4.99 7.495 -4.99 7.495 -6 8 C-6 7.34 -6 6.68 -6 6 Z " fill="#C9C9C9" transform="translate(240,296)"/>
</svg>
